<svg width="245" height="210" viewBox="0 0 245 210" fill="none" xmlns="http://www.w3.org/2000/svg">
<path d="M45.6264 50.019L4 111.033L52.4691 141.825L98.0871 111.033H120.326L154.539 65.4151L157.39 3.26062C155.49 3.26062 142.451 4.85725 105.5 11.2438C91.8146 24.473 59.882 42.6061 45.6264 50.019Z" fill="white" fill-opacity="0.1"/>
<path d="M225.247 26.6398L157.39 3.26062L154.539 65.4151L206.658 111.033L220.685 72.2578L225.247 26.6398Z" fill="white" fill-opacity="0.1"/>
<path d="M120.326 111.033L136.862 130.421L206.658 111.033L154.539 65.4151L120.326 111.033Z" fill="white" fill-opacity="0.1"/>
<path d="M98.0871 111.033L52.4691 141.825L56.4607 179.46L80.9803 203.409L136.862 183.452L128.309 156.081L136.862 130.421L120.326 111.033H98.0871Z" fill="white" fill-opacity="0.1"/>
<path d="M33.0815 190.294L80.9803 203.409L56.4607 179.46L52.4691 141.825L4 111.033L33.0815 190.294Z" fill="white" fill-opacity="0.1"/>
<path d="M128.309 206.261L195.596 190.294L136.862 183.452L80.9803 203.409L128.309 206.261Z" fill="white" fill-opacity="0.1"/>
<path d="M136.862 130.421L128.309 156.081L136.862 183.452L195.596 190.294L224.708 125.859L206.658 111.033L136.862 130.421Z" fill="white" fill-opacity="0.1"/>
<path d="M241.213 63.1342L225.247 26.6398L220.685 72.2578L206.658 111.033L224.708 125.859L238.362 95.637L241.213 63.1342Z" fill="white" fill-opacity="0.1"/>
<path d="M4 111.033L1.64479 109.426L0.818073 110.638L1.32335 112.015L4 111.033ZM45.6264 50.019L44.311 47.4895L43.6751 47.8202L43.2712 48.4122L45.6264 50.019ZM105.5 11.2438L105.014 8.4343L104.149 8.58379L103.518 9.19384L105.5 11.2438ZM157.39 3.26062L158.319 0.565004L157.868 0.409496H157.39V3.26062ZM225.247 26.6398L227.859 25.497L227.358 24.3515L226.176 23.9442L225.247 26.6398ZM241.213 63.1342L244.054 63.3834L244.117 62.6583L243.826 61.9914L241.213 63.1342ZM238.362 95.637L240.961 96.8109L241.16 96.3691L241.203 95.8862L238.362 95.637ZM195.596 190.294L196.254 193.068L197.617 192.745L198.194 191.468L195.596 190.294ZM128.309 206.261L128.138 209.107L128.558 209.132L128.967 209.035L128.309 206.261ZM80.9803 203.409L80.2274 206.159L80.5131 206.238L80.8089 206.255L80.9803 203.409ZM33.0815 190.294L30.4048 191.276L30.911 192.656L32.3285 193.044L33.0815 190.294ZM98.0871 111.033V108.182H97.2149L96.4919 108.67L98.0871 111.033ZM128.309 156.081L125.604 155.179L125.313 156.053L125.588 156.931L128.309 156.081ZM56.4607 179.46L53.6255 179.761L53.7338 180.782L54.4685 181.5L56.4607 179.46ZM224.708 125.859L227.306 127.033L227.306 127.033L224.708 125.859ZM220.685 72.2578L223.366 73.2278L223.487 72.8943L223.522 72.5415L220.685 72.2578ZM6.35521 112.64L47.9816 51.6259L43.2712 48.4122L1.64479 109.426L6.35521 112.64ZM46.9418 52.5486C54.1251 48.8133 65.7353 42.3916 77.2792 35.2358C88.7694 28.1133 100.402 20.1374 107.482 13.2937L103.518 9.19384C96.9127 15.5793 85.7362 23.2846 74.2749 30.3892C62.8673 37.4605 51.3833 43.8119 44.311 47.4895L46.9418 52.5486ZM105.986 14.0532C124.447 10.8624 136.92 8.87075 145.005 7.67784C153.217 6.4663 156.701 6.11174 157.39 6.11174V0.409496C156.179 0.409496 152.194 0.85325 144.173 2.03666C136.026 3.2387 123.504 5.23865 105.014 8.4343L105.986 14.0532ZM156.462 5.95624L224.318 29.3354L226.176 23.9442L158.319 0.565004L156.462 5.95624ZM222.635 27.7826L238.601 64.277L243.826 61.9914L227.859 25.497L222.635 27.7826ZM238.373 62.8851L235.522 95.3879L241.203 95.8862L244.054 63.3834L238.373 62.8851ZM194.937 187.52L127.651 203.487L128.967 209.035L196.254 193.068L194.937 187.52ZM128.48 203.415L81.1518 200.564L80.8089 206.255L128.138 209.107L128.48 203.415ZM81.7333 200.66L33.8344 187.544L32.3285 193.044L80.2274 206.159L81.7333 200.66ZM35.7581 189.312L6.67665 110.051L1.32335 112.015L30.4048 191.276L35.7581 189.312ZM2.47113 113.44L50.9402 144.232L53.998 139.419L5.52887 108.627L2.47113 113.44ZM54.0642 144.188L99.6822 113.396L96.4919 108.67L50.874 139.462L54.0642 144.188ZM98.0871 113.884H120.326V108.182H98.0871V113.884ZM118.157 112.883L134.693 132.271L139.032 128.571L122.495 109.183L118.157 112.883ZM134.158 129.519L125.604 155.179L131.014 156.982L139.567 131.322L134.158 129.519ZM125.588 156.931L134.141 184.302L139.584 182.601L131.03 155.23L125.588 156.931ZM135.903 180.767L80.0214 200.724L81.9393 206.095L137.821 186.137L135.903 180.767ZM82.9725 201.37L58.4529 177.42L54.4685 181.5L78.9881 205.449L82.9725 201.37ZM59.2959 179.159L55.3043 141.525L49.6339 142.126L53.6255 179.761L59.2959 179.159ZM122.607 112.744L156.82 67.1258L152.258 63.7044L118.045 109.322L122.607 112.744ZM157.387 65.5458L160.239 3.39127L154.542 3.12997L151.691 65.2845L157.387 65.5458ZM235.764 94.4631L222.11 124.685L227.306 127.033L240.961 96.8109L235.764 94.4631ZM222.11 124.685L192.997 189.12L198.194 191.468L227.306 127.033L222.11 124.685ZM152.662 67.5605L204.78 113.178L208.535 108.888L156.417 63.2697L152.662 67.5605ZM204.848 113.236L222.898 128.062L226.518 123.656L208.467 108.83L204.848 113.236ZM209.339 112.003L223.366 73.2278L218.004 71.2879L203.976 110.063L209.339 112.003ZM223.522 72.5415L228.084 26.9235L222.41 26.3561L217.848 71.9741L223.522 72.5415ZM205.894 108.286L136.099 127.674L137.625 133.168L207.421 113.78L205.894 108.286ZM136.532 186.284L195.266 193.126L195.925 187.462L137.192 180.62L136.532 186.284Z" fill="url(#paint0_linear_204_18)"/>
<defs>
<linearGradient id="paint0_linear_204_18" x1="55.8904" y1="14.0949" x2="241.213" y2="278.109" gradientUnits="userSpaceOnUse">
<stop stop-color="#FFE58A"/>
<stop offset="1" stop-color="#65592D"/>
</linearGradient>
</defs>
</svg>
