<svg width="252" height="216" viewBox="0 0 252 216" fill="none" xmlns="http://www.w3.org/2000/svg">
<path d="M45.6416 50.7807L2.21484 114.434L52.7803 146.558L100.371 114.434H123.572L159.265 66.8427L162.239 2C160.257 2 146.653 3.66568 108.105 10.3284C93.8275 24.1298 60.5138 43.0472 45.6416 50.7807Z" fill="white" fill-opacity="0.1"/>
<path d="M233.031 26.3904L162.239 2L159.265 66.8427L213.637 114.434L228.272 73.9813L233.031 26.3904Z" fill="white" fill-opacity="0.1"/>
<path d="M123.572 114.434L140.824 134.66L213.637 114.434L159.265 66.8427L123.572 114.434Z" fill="white" fill-opacity="0.1"/>
<path d="M100.371 114.434L52.7803 146.558L56.9445 185.82L82.5246 210.805L140.824 189.984L131.9 161.43L140.824 134.66L123.572 114.434H100.371Z" fill="white" fill-opacity="0.1"/>
<path d="M32.5541 197.123L82.5246 210.805L56.9445 185.82L52.7803 146.558L2.21484 114.434L32.5541 197.123Z" fill="white" fill-opacity="0.1"/>
<path d="M131.9 213.78L202.097 197.123L140.824 189.984L82.5246 210.805L131.9 213.78Z" fill="white" fill-opacity="0.1"/>
<path d="M140.824 134.66L131.9 161.43L140.824 189.984L202.097 197.123L232.468 129.901L213.637 114.434L140.824 134.66Z" fill="white" fill-opacity="0.1"/>
<path d="M249.688 64.4631L233.031 26.3904L228.272 73.9813L213.637 114.434L232.468 129.901L246.713 98.3717L249.688 64.4631Z" fill="white" fill-opacity="0.1"/>
<path d="M2.21484 114.434L0.610139 113.339L0.0468621 114.164L0.391132 115.103L2.21484 114.434ZM45.6416 50.7807L44.7454 49.0572L44.3121 49.2825L44.0369 49.6859L45.6416 50.7807ZM108.105 10.3284L107.774 8.41421L107.185 8.51607L106.755 8.93172L108.105 10.3284ZM162.239 2L162.872 0.163363L162.565 0.0574088H162.239V2ZM233.031 26.3904L234.811 25.6117L234.469 24.8312L233.664 24.5537L233.031 26.3904ZM249.688 64.4631L251.623 64.6329L251.666 64.1389L251.468 63.6845L249.688 64.4631ZM246.713 98.3717L248.484 99.1715L248.62 98.8705L248.649 98.5415L246.713 98.3717ZM202.097 197.123L202.545 199.013L203.474 198.793L203.867 197.923L202.097 197.123ZM131.9 213.78L131.783 215.719L132.07 215.736L132.349 215.67L131.9 213.78ZM82.5246 210.805L82.0116 212.679L82.2063 212.732L82.4078 212.744L82.5246 210.805ZM32.5541 197.123L30.7304 197.792L31.0753 198.732L32.0411 198.997L32.5541 197.123ZM100.371 114.434V112.491H99.7769L99.2844 112.824L100.371 114.434ZM131.9 161.43L130.057 160.815L129.859 161.41L130.046 162.009L131.9 161.43ZM56.9445 185.82L55.0127 186.025L55.0865 186.721L55.5871 187.21L56.9445 185.82ZM232.468 129.901L234.239 130.701L232.468 129.901ZM228.272 73.9813L230.099 74.6422L230.181 74.415L230.205 74.1746L228.272 73.9813ZM3.81955 115.528L47.2463 51.8755L44.0369 49.6859L0.610139 113.339L3.81955 115.528ZM46.5378 52.5042C54.0117 48.6178 66.1012 41.9311 78.1197 34.4811C90.1017 27.0538 102.155 18.7819 109.455 11.7251L106.755 8.93172C99.7775 15.6763 88.0351 23.7638 76.0728 31.1789C64.1471 38.5714 52.1436 45.2102 44.7454 49.0572L46.5378 52.5042ZM108.436 12.2426C127.701 8.91289 140.722 6.83362 149.168 5.58747C157.7 4.32863 161.426 3.94259 162.239 3.94259V0.0574088C161.07 0.0574088 157.003 0.504215 148.601 1.7439C140.112 2.99627 127.058 5.08121 107.774 8.41421L108.436 12.2426ZM161.607 3.83664L232.398 28.227L233.664 24.5537L162.872 0.163363L161.607 3.83664ZM231.251 27.169L247.908 65.2418L251.468 63.6845L234.811 25.6117L231.251 27.169ZM247.753 64.2934L244.778 98.202L248.649 98.5415L251.623 64.6329L247.753 64.2934ZM201.648 195.233L131.452 211.89L132.349 215.67L202.545 199.013L201.648 195.233ZM132.017 211.841L82.6414 208.866L82.4078 212.744L131.783 215.719L132.017 211.841ZM83.0376 208.932L33.0671 195.249L32.0411 198.997L82.0116 212.679L83.0376 208.932ZM34.3778 196.454L4.03856 113.765L0.391132 115.103L30.7304 197.792L34.3778 196.454ZM1.17316 116.073L51.7386 148.197L53.8219 144.918L3.25652 112.794L1.17316 116.073ZM53.8671 148.168L101.458 116.044L99.2844 112.824L51.6934 144.947L53.8671 148.168ZM100.371 116.376H123.572V112.491H100.371V116.376ZM122.094 115.694L139.346 135.92L142.302 133.399L125.05 113.173L122.094 115.694ZM138.981 134.046L130.057 160.815L133.743 162.044L142.666 135.274L138.981 134.046ZM130.046 162.009L138.969 190.564L142.678 189.405L133.754 160.85L130.046 162.009ZM140.17 188.155L81.8712 208.976L83.178 212.635L141.477 191.814L140.17 188.155ZM83.882 209.416L58.3018 184.43L55.5871 187.21L81.1672 212.195L83.882 209.416ZM58.8762 185.615L54.712 146.353L50.8485 146.762L55.0127 186.025L58.8762 185.615ZM125.126 115.599L160.819 68.0082L157.711 65.6771L122.018 113.268L125.126 115.599ZM161.206 66.9317L164.18 2.08902L160.299 1.91098L157.324 66.7537L161.206 66.9317ZM244.943 97.5719L230.698 129.101L234.239 130.701L248.484 99.1715L244.943 97.5719ZM230.698 129.101L200.327 196.323L203.867 197.923L234.239 130.701L230.698 129.101ZM157.986 68.3044L212.358 115.895L214.917 112.972L160.544 65.3809L157.986 68.3044ZM212.404 115.935L231.235 131.402L233.701 128.4L214.87 112.933L212.404 115.935ZM215.464 115.095L230.099 74.6422L226.445 73.3205L211.811 113.773L215.464 115.095ZM230.205 74.1746L234.964 26.5837L231.098 26.1971L226.339 73.788L230.205 74.1746ZM213.117 112.562L140.304 132.788L141.343 136.532L214.157 116.305L213.117 112.562ZM140.599 191.914L201.872 199.053L202.322 195.193L141.048 188.055L140.599 191.914Z" fill="url(#paint0_linear_204_18)"/>
<defs>
<linearGradient id="paint0_linear_204_18" x1="56.3496" y1="13.3029" x2="249.688" y2="288.736" gradientUnits="userSpaceOnUse">
<stop stop-color="#FFE58A"/>
<stop offset="1" stop-color="#65592D"/>
</linearGradient>
</defs>
</svg>
