<svg width="327" height="210" viewBox="0 0 327 210" fill="none" xmlns="http://www.w3.org/2000/svg">
<path fill-rule="evenodd" clip-rule="evenodd" d="M4.19862 74.0582C9.7128 79.3087 25.5809 90.2849 44.9401 92.1854C64.2992 94.0858 141.148 102.341 177.152 106.231L184.94 92.439L294.037 94.1516C326.277 94.2591 346.561 41.6099 287.142 29.7176C236.85 27.3433 246.657 70.953 254.227 78.1495L4.19862 74.0582ZM171.038 82.0987C165.221 80.949 162.001 91.148 169.691 92.8891C175.377 94.4554 177.434 83.5896 171.038 82.0987ZM291.985 43.3772C266.833 33.1472 239.142 67.207 282.436 80.8755C319.55 88.0155 321.125 52.5771 291.985 43.3772Z" fill="white" fill-opacity="0.1"/>
<path fill-rule="evenodd" clip-rule="evenodd" d="M187.635 96.9521L181.94 107.743L233.725 143.09C208.102 151.023 198.509 194.459 245.921 206.681C302.513 214.477 290.569 162.41 279.077 156.035L192.466 96.8751L187.635 96.9521ZM255.262 156.07C233.648 146.957 203.492 173.601 244.2 194.006C279.464 206.284 289.485 168.019 255.262 156.07Z" fill="white" fill-opacity="0.1"/>
<path d="M26.5413 3.28984L126.277 71.6291L178.125 71.9762L68.2242 11.1854C61.0231 6.92813 42.6049 -0.611074 26.5413 3.28984Z" fill="white" fill-opacity="0.1"/>
<path d="M26.5413 3.28984L26.1694 1.75823L22.7349 2.59227L25.6504 4.59003L26.5413 3.28984ZM126.277 71.6291L125.386 72.9293L125.784 73.202L126.266 73.2052L126.277 71.6291ZM178.125 71.9762L178.115 73.5523L178.888 70.597L178.125 71.9762ZM68.2242 11.1854L67.4221 12.5421L67.4416 12.5536L67.4613 12.5645L68.2242 11.1854ZM4.19862 74.0582L4.22441 72.4823L0.188608 72.4162L3.11176 75.1996L4.19862 74.0582ZM177.152 106.231L176.983 107.798L178.015 107.91L178.525 107.006L177.152 106.231ZM184.94 92.439L184.965 90.8631L184.028 90.8484L183.568 91.664L184.94 92.439ZM294.037 94.1516L294.013 95.7275L294.022 95.7277L294.032 95.7277L294.037 94.1516ZM287.142 29.7176L287.452 28.1721L287.335 28.1488L287.217 28.1432L287.142 29.7176ZM254.227 78.1495L254.201 79.7254L258.242 79.7916L255.313 77.0072L254.227 78.1495ZM171.038 82.0987L171.396 80.5637L171.37 80.5577L171.344 80.5525L171.038 82.0987ZM169.691 92.8891L170.11 91.3696L170.075 91.3599L170.039 91.3519L169.691 92.8891ZM187.635 96.9521L187.61 95.3761L186.677 95.391L186.241 96.2163L187.635 96.9521ZM181.94 107.743L180.546 107.007L179.889 108.251L181.051 109.045L181.94 107.743ZM233.725 143.09L234.191 144.595L237.311 143.629L234.613 141.788L233.725 143.09ZM245.921 206.681L245.528 208.207L245.616 208.23L245.706 208.242L245.921 206.681ZM279.077 156.035L278.188 157.337L278.249 157.378L278.313 157.414L279.077 156.035ZM192.466 96.8751L193.355 95.5736L192.942 95.2912L192.441 95.2991L192.466 96.8751ZM291.985 43.3772L291.392 44.8372L291.45 44.8611L291.511 44.8802L291.985 43.3772ZM282.436 80.8755L281.961 82.3785L282.048 82.406L282.138 82.4233L282.436 80.8755ZM255.262 156.07L254.65 157.522L254.696 157.542L254.743 157.558L255.262 156.07ZM244.2 194.006L243.494 195.415L243.586 195.461L243.682 195.495L244.2 194.006ZM25.6504 4.59003L125.386 72.9293L127.168 70.3289L27.4322 1.98966L25.6504 4.59003ZM126.266 73.2052L178.115 73.5523L178.136 70.4001L126.287 70.053L126.266 73.2052ZM178.888 70.597L68.9871 9.80616L67.4613 12.5645L177.362 73.3554L178.888 70.597ZM69.0263 9.82859C65.3009 7.62619 58.7584 4.61894 51.0983 2.65171C43.4461 0.686538 34.5441 -0.27549 26.1694 1.75823L26.9133 4.82145C34.6022 2.95426 42.9411 3.81138 50.3142 5.70488C57.6792 7.59633 63.9464 10.4873 67.4221 12.5421L69.0263 9.82859ZM3.11176 75.1996C8.80253 80.6183 24.9831 91.81 44.7861 93.754L45.0941 90.6168C26.1788 88.7599 10.6231 77.9991 5.28549 72.9167L3.11176 75.1996ZM44.7861 93.754C64.1354 95.6534 140.974 103.908 176.983 107.798L177.322 104.664C141.322 100.775 64.463 92.5182 45.0941 90.6168L44.7861 93.754ZM178.525 107.006L186.313 93.2139L183.568 91.664L175.78 105.456L178.525 107.006ZM184.915 94.0149L294.013 95.7275L294.062 92.5757L184.965 90.8631L184.915 94.0149ZM294.032 95.7277C311.013 95.7844 324.77 81.9878 326.528 66.6136C327.414 58.862 325.255 50.7161 318.992 43.7628C312.75 36.8322 302.529 31.1898 287.452 28.1721L286.833 31.2631C301.465 34.1915 310.991 39.5899 316.65 45.8724C322.288 52.1322 324.183 59.3716 323.396 66.2554C321.807 80.1521 309.301 92.6264 294.043 92.5755L294.032 95.7277ZM287.217 28.1432C274.432 27.5397 265.26 29.8478 258.867 33.9444C252.448 38.0579 248.985 43.8763 247.458 49.9607C245.938 56.0133 246.329 62.3279 247.57 67.5751C248.795 72.7514 250.921 77.181 253.141 79.2919L255.313 77.0072C253.749 75.5198 251.809 71.7994 250.638 66.8492C249.483 61.9697 249.146 56.1809 250.515 50.7283C251.876 45.3075 254.918 40.2189 260.568 36.5985C266.244 32.9611 274.707 30.7084 287.068 31.292L287.217 28.1432ZM254.253 76.5736L4.22441 72.4823L4.17284 75.6341L254.201 79.7254L254.253 76.5736ZM171.344 80.5525C167.301 79.7534 164.442 82.9368 163.759 86.0748C163.405 87.7043 163.558 89.521 164.477 91.0999C165.414 92.7088 167.051 93.9074 169.343 94.4263L170.039 91.3519C168.486 91.0003 167.642 90.271 167.202 89.514C166.743 88.7267 166.623 87.7391 166.84 86.745C167.299 84.6356 168.959 83.2943 170.733 83.6449L171.344 80.5525ZM169.273 94.4086C171.247 94.9524 172.997 94.4028 174.267 93.233C175.48 92.1164 176.198 90.5022 176.452 88.8851C176.95 85.7198 175.708 81.5689 171.396 80.5637L170.68 83.6337C172.764 84.1194 173.692 86.1468 173.338 88.3956C173.167 89.4855 172.704 90.3873 172.132 90.914C171.618 91.3877 170.979 91.6089 170.11 91.3696L169.273 94.4086ZM186.241 96.2163L180.546 107.007L183.334 108.479L189.029 97.6878L186.241 96.2163ZM181.051 109.045L232.836 144.392L234.613 141.788L182.828 106.441L181.051 109.045ZM233.258 141.584C219.742 145.769 210.517 159.266 210.859 173.315C211.206 187.563 221.313 201.965 245.528 208.207L246.315 205.155C223.117 199.175 214.315 185.748 214.01 173.239C213.701 160.531 222.085 148.344 234.191 144.595L233.258 141.584ZM245.706 208.242C260.059 210.219 270.318 208.438 277.387 204.314C284.496 200.167 288.174 193.77 289.574 186.991C290.967 180.25 290.12 173.105 288.201 167.244C287.24 164.308 285.996 161.653 284.594 159.501C283.207 157.373 281.593 155.628 279.842 154.657L278.313 157.414C279.435 158.036 280.708 159.313 281.953 161.222C283.182 163.108 284.315 165.505 285.205 168.225C286.99 173.676 287.747 180.256 286.487 186.353C285.236 192.413 282.007 197.97 275.799 201.591C269.55 205.237 260.079 207.04 246.136 205.119L245.706 208.242ZM279.966 154.734L193.355 95.5736L191.577 98.1765L278.188 157.337L279.966 154.734ZM192.441 95.2991L187.61 95.3761L187.66 98.528L192.491 98.451L192.441 95.2991ZM292.579 41.9172C279.266 36.5024 265.184 42.755 260.145 52.4368C257.582 57.3615 257.37 63.1787 260.79 68.6472C264.165 74.0435 270.949 78.9017 281.961 82.3785L282.91 79.3725C272.276 76.0151 266.286 71.4901 263.462 66.9757C260.684 62.5334 260.849 57.9121 262.941 53.8921C267.213 45.6844 279.553 40.022 291.392 44.8372L292.579 41.9172ZM282.138 82.4233C291.636 84.2505 299.073 83.3964 304.39 80.7313C309.745 78.0468 312.839 73.5701 313.614 68.4915C315.156 58.3844 307.534 46.6333 292.46 41.8742L291.511 44.8802C305.577 49.321 311.738 59.889 310.498 68.0162C309.882 72.0546 307.445 75.6737 302.977 77.9133C298.47 80.1723 291.792 81.0705 282.733 79.3278L282.138 82.4233ZM255.874 154.618C244.402 149.78 230.621 154.363 225.032 163.121C222.173 167.6 221.488 173.142 224.3 178.882C227.072 184.54 233.159 190.235 243.494 195.415L244.907 192.597C234.888 187.575 229.479 182.288 227.131 177.495C224.823 172.786 225.395 168.41 227.689 164.817C232.404 157.429 244.509 153.247 254.65 157.522L255.874 154.618ZM243.682 195.495C252.75 198.652 260.383 198.624 266.18 196.411C271.998 194.191 275.853 189.804 277.308 184.544C280.235 173.963 273.4 160.733 255.782 154.582L254.743 157.558C271.347 163.356 276.613 175.233 274.27 183.703C273.09 187.968 269.967 191.592 265.056 193.466C260.126 195.348 253.283 195.5 244.719 192.518L243.682 195.495Z" fill="url(#paint0_linear_204_19)"/>
<defs>
<linearGradient id="paint0_linear_204_19" x1="103.377" y1="-18.679" x2="153.795" y2="340.077" gradientUnits="userSpaceOnUse">
<stop stop-color="#FFE58A"/>
<stop offset="1" stop-color="#65592D"/>
</linearGradient>
</defs>
</svg>
