<svg width="328" height="210" viewBox="0 0 328 210" fill="none" xmlns="http://www.w3.org/2000/svg">
<path fill-rule="evenodd" clip-rule="evenodd" d="M5.19862 74.0582C10.7128 79.3087 26.5809 90.2849 45.9401 92.1854C65.2992 94.0858 142.148 102.341 178.152 106.231L185.94 92.439L295.037 94.1516C327.277 94.2591 347.561 41.6099 288.142 29.7176C237.85 27.3433 247.657 70.953 255.227 78.1495L5.19862 74.0582ZM172.038 82.0987C166.221 80.949 163.001 91.148 170.691 92.8891C176.377 94.4554 178.434 83.5896 172.038 82.0987ZM292.985 43.3772C267.833 33.1472 240.142 67.207 283.436 80.8755C320.55 88.0155 322.125 52.5771 292.985 43.3772Z" fill="white" fill-opacity="0.1"/>
<path fill-rule="evenodd" clip-rule="evenodd" d="M188.635 96.9521L182.94 107.743L234.725 143.09C209.102 151.023 199.509 194.459 246.921 206.681C303.513 214.477 291.569 162.41 280.077 156.035L193.466 96.8751L188.635 96.9521ZM256.262 156.07C234.648 146.957 204.492 173.601 245.2 194.006C280.464 206.284 290.485 168.019 256.262 156.07Z" fill="white" fill-opacity="0.1"/>
<path d="M27.5413 3.28984L127.277 71.6291L179.125 71.9762L69.2242 11.1854C62.0231 6.92814 43.6049 -0.611074 27.5413 3.28984Z" fill="white" fill-opacity="0.1"/>
<path d="M27.5413 3.28984L27.1284 1.58927L23.315 2.51532L26.5522 4.73346L27.5413 3.28984ZM127.277 71.6291L126.288 73.0727L126.729 73.3755L127.265 73.3791L127.277 71.6291ZM179.125 71.9762L179.113 73.7262L179.972 70.4449L179.125 71.9762ZM69.2242 11.1854L68.3336 12.6918L68.3552 12.7046L68.3772 12.7167L69.2242 11.1854ZM5.19862 74.0582L5.22726 72.3084L0.74623 72.2351L3.99185 75.3255L5.19862 74.0582ZM178.152 106.231L177.964 107.971L179.11 108.095L179.676 107.092L178.152 106.231ZM185.94 92.439L185.968 90.6892L184.928 90.6729L184.416 91.5786L185.94 92.439ZM295.037 94.1516L295.01 95.9014L295.021 95.9015L295.032 95.9016L295.037 94.1516ZM288.142 29.7176L288.486 28.0016L288.357 27.9758L288.225 27.9695L288.142 29.7176ZM255.227 78.1495L255.199 79.8993L259.685 79.9727L256.433 76.8812L255.227 78.1495ZM172.038 82.0987L172.435 80.3944L172.407 80.3877L172.377 80.3819L172.038 82.0987ZM170.691 92.8891L171.156 91.2019L171.117 91.1912L171.078 91.1823L170.691 92.8891ZM188.635 96.9521L188.607 95.2023L187.571 95.2188L187.088 96.1352L188.635 96.9521ZM182.94 107.743L181.392 106.926L180.663 108.307L181.953 109.188L182.94 107.743ZM234.725 143.09L235.242 144.762L238.706 143.689L235.711 141.644L234.725 143.09ZM246.921 206.681L246.484 208.375L246.582 208.401L246.682 208.414L246.921 206.681ZM280.077 156.035L279.09 157.48L279.158 157.526L279.229 157.566L280.077 156.035ZM193.466 96.8751L194.453 95.43L193.994 95.1164L193.438 95.1253L193.466 96.8751ZM292.985 43.3772L292.326 44.9982L292.391 45.0248L292.459 45.046L292.985 43.3772ZM283.436 80.8755L282.909 82.5443L283.005 82.5748L283.105 82.594L283.436 80.8755ZM256.262 156.07L255.582 157.682L255.633 157.704L255.685 157.722L256.262 156.07ZM245.2 194.006L244.416 195.571L244.518 195.622L244.625 195.659L245.2 194.006ZM26.5522 4.73346L126.288 73.0727L128.266 70.1855L28.5305 1.84623L26.5522 4.73346ZM127.265 73.3791L179.113 73.7262L179.137 70.2263L127.289 69.8792L127.265 73.3791ZM179.972 70.4449L70.0713 9.65401L68.3772 12.7167L178.278 73.5076L179.972 70.4449ZM70.1148 9.67891C66.3757 7.46838 59.8179 4.45471 52.1415 2.4833C44.474 0.514175 35.5409 -0.453639 27.1284 1.58927L27.9543 4.99042C35.6054 3.13241 43.9132 3.98374 51.2709 5.87329C58.6197 7.76056 64.8717 10.6451 68.3336 12.6918L70.1148 9.67891ZM3.99185 75.3255C9.70211 80.7628 25.9172 91.9782 45.7691 93.927L46.1111 90.4438C27.2447 88.5917 11.7235 77.8547 6.40539 72.7908L3.99185 75.3255ZM45.7691 93.927C65.1173 95.8264 141.954 104.081 177.964 107.971L178.34 104.492C142.341 100.602 65.4811 92.3453 46.1111 90.4438L45.7691 93.927ZM179.676 107.092L187.464 93.2994L184.416 91.5786L176.629 105.371L179.676 107.092ZM185.913 94.1888L295.01 95.9014L295.065 92.4018L185.968 90.6892L185.913 94.1888ZM295.032 95.9016C312.108 95.9585 325.933 82.089 327.7 66.6334C328.592 58.8339 326.418 50.6379 320.121 43.6464C313.847 36.6801 303.588 31.0243 288.486 28.0016L287.799 31.4336C302.406 34.3571 311.894 39.742 317.52 45.9888C323.124 52.2103 325.005 59.3998 324.223 66.2357C322.643 80.0509 310.207 92.4522 295.043 92.4016L295.032 95.9016ZM288.225 27.9695C275.417 27.3649 266.206 29.6761 259.774 33.798C253.312 37.9387 249.826 43.7973 248.289 49.9184C246.761 56.004 247.155 62.3477 248.401 67.6151C249.629 72.804 251.765 77.2727 254.022 79.4179L256.433 76.8812C254.905 75.4281 252.976 71.7469 251.807 66.8091C250.657 61.9499 250.323 56.1902 251.684 50.7706C253.035 45.3865 256.054 40.3381 261.662 36.7449C267.299 33.1328 275.722 30.8832 288.06 31.4657L288.225 27.9695ZM255.256 76.3998L5.22726 72.3084L5.16999 75.808L255.199 79.8993L255.256 76.3998ZM172.377 80.3819C168.209 79.5581 165.285 82.843 164.59 86.0378C164.227 87.7023 164.383 89.5648 165.327 91.1873C166.291 92.8433 167.972 94.0677 170.305 94.5959L171.078 91.1823C169.565 90.8399 168.765 90.1366 168.352 89.4265C167.919 88.6829 167.801 87.7411 168.01 86.7819C168.456 84.7294 170.05 83.4896 171.699 83.8155L172.377 80.3819ZM170.227 94.5762C172.262 95.1369 174.073 94.5691 175.385 93.361C176.633 92.2118 177.365 90.5583 177.624 88.9121C178.13 85.6962 176.871 81.4282 172.435 80.3944L171.641 83.803C173.602 84.26 174.512 86.1704 174.167 88.3686C174 89.4294 173.551 90.2919 173.014 90.7861C172.542 91.2214 171.964 91.4245 171.156 91.2019L170.227 94.5762ZM187.088 96.1352L181.392 106.926L184.487 108.56L190.183 97.769L187.088 96.1352ZM181.953 109.188L233.738 144.535L235.711 141.644L183.926 106.297L181.953 109.188ZM234.207 141.418C220.612 145.627 211.342 159.196 211.685 173.319C212.034 187.663 222.214 202.119 246.484 208.375L247.358 204.986C224.216 199.021 215.486 185.647 215.184 173.234C214.877 160.601 223.214 148.486 235.242 144.762L234.207 141.418ZM246.682 208.414C261.058 210.395 271.36 208.615 278.475 204.464C285.634 200.288 289.336 193.845 290.745 187.026C292.144 180.249 291.292 173.073 289.366 167.19C288.401 164.241 287.152 161.572 285.739 159.406C284.344 157.266 282.712 155.495 280.926 154.505L279.229 157.566C280.316 158.169 281.571 159.42 282.807 161.317C284.027 163.188 285.154 165.572 286.04 168.279C287.817 173.707 288.569 180.256 287.317 186.318C286.074 192.338 282.87 197.849 276.711 201.441C270.507 205.06 261.08 206.865 247.16 204.947L246.682 208.414ZM281.065 154.59L194.453 95.43L192.479 98.3201L279.09 157.48L281.065 154.59ZM193.438 95.1253L188.607 95.2023L188.663 98.7018L193.494 98.6248L193.438 95.1253ZM293.645 41.7561C280.25 36.3083 266.072 42.5934 260.991 52.3565C258.402 57.3311 258.187 63.2143 261.642 68.7393C265.048 74.1844 271.875 79.061 282.909 82.5443L283.962 79.2067C273.349 75.8558 267.403 71.3492 264.61 66.8835C261.867 62.4978 262.029 57.9425 264.096 53.9723C268.325 45.8459 280.568 40.2162 292.326 44.9982L293.645 41.7561ZM283.105 82.594C292.628 84.4259 300.106 83.5742 305.468 80.8868C310.872 78.1777 314.003 73.6537 314.786 68.5177C316.344 58.3015 308.642 46.4851 293.512 41.7084L292.459 45.046C306.469 49.4692 312.549 59.972 311.326 67.9899C310.719 71.971 308.318 75.5428 303.899 77.7579C299.437 79.9945 292.801 80.8951 283.766 79.157L283.105 82.594ZM256.942 154.457C245.396 149.589 231.523 154.194 225.885 163.027C222.995 167.555 222.304 173.161 225.144 178.959C227.939 184.664 234.063 190.381 244.416 195.571L245.985 192.442C235.983 187.429 230.611 182.164 228.287 177.419C226.007 172.766 226.573 168.455 228.835 164.91C233.502 157.598 245.515 153.438 255.582 157.682L256.942 154.457ZM244.625 195.659C253.721 198.826 261.397 198.805 267.242 196.574C273.11 194.334 277.005 189.905 278.475 184.59C281.435 173.893 274.513 160.589 256.839 154.418L255.685 157.722C272.234 163.5 277.413 175.303 275.102 183.657C273.937 187.867 270.854 191.449 265.994 193.304C261.112 195.168 254.312 195.326 245.776 192.354L244.625 195.659Z" fill="url(#paint0_linear_204_19)"/>
<defs>
<linearGradient id="paint0_linear_204_19" x1="104.377" y1="-18.679" x2="154.795" y2="340.077" gradientUnits="userSpaceOnUse">
<stop stop-color="#FFE58A"/>
<stop offset="1" stop-color="#65592D"/>
</linearGradient>
</defs>
</svg>
